<?xml version="1.0" encoding="UTF-8" standalone="no"?>
<!-- Created with Inkscape (http://www.inkscape.org/) -->

<svg
   width="51.461658mm"
   height="9.9283218mm"
   viewBox="0 0 194.50076 37.524367"
   version="1.1"
   id="svg1"
   xml:space="preserve"
   xmlns:inkscape="http://www.inkscape.org/namespaces/inkscape"
   xmlns:sodipodi="http://sodipodi.sourceforge.net/DTD/sodipodi-0.dtd"
   xmlns="http://www.w3.org/2000/svg"
   xmlns:svg="http://www.w3.org/2000/svg"><sodipodi:namedview
     id="namedview1"
     pagecolor="#ffffff"
     bordercolor="#000000"
     borderopacity="0.25"
     inkscape:showpageshadow="2"
     inkscape:pageopacity="0.0"
     inkscape:pagecheckerboard="0"
     inkscape:deskcolor="#d1d1d1"
     inkscape:document-units="mm" /><defs
     id="defs1" /><g
     inkscape:label="Layer 1"
     inkscape:groupmode="layer"
     id="layer1"
     transform="translate(-111.9957,-240.71054)"><g
       style="fill:#0d7dff"
       id="g3"
       transform="matrix(0.96537697,0,0,0.96537697,115.31712,243.544)"><g
         id="SVGRepo_bgCarrier"
         stroke-width="0" /><g
         id="SVGRepo_tracerCarrier"
         stroke-linecap="round"
         stroke-linejoin="round" /><g
         id="SVGRepo_iconCarrier"> <style
   type="text/css"
   id="style1"> .st0{fill:none;stroke:#0D7DFF;stroke-width:2;stroke-linecap:round;stroke-linejoin:round;stroke-miterlimit:10;} </style> <g
   id="g2"> <path
   d="m 16,9 c 1.7,0 3,-1.3 3,-3 0,-1.7 -1.3,-3 -3,-3 -1.7,0 -3,1.3 -3,3 0,1.7 1.3,3 3,3 z"
   id="path1-8" /> <path
   d="m 29.7,11.3 -7,-6.5 C 22.4,4.5 22,4.5 21.6,4.6 21.2,4.8 21,5.2 21,5.6 21,5.7 21,5.9 21,6 21,8.8 18.8,11 16,11 13.2,11 11,8.8 11,6 11,5.9 11,5.7 11,5.6 11,5.2 10.8,4.8 10.4,4.6 10,4.4 9.6,4.5 9.3,4.8 l -7,6.5 C 2,11.5 1.9,11.9 2,12.3 2.1,12.7 2.3,12.9 2.7,13 l 8.9,2.8 C 10.1,16.3 9,17.2 9,18.5 c 0,0.5 0.2,1.3 1.1,2 0.4,0.3 1.1,0.2 1.4,-0.2 0.3,-0.4 0.2,-1.1 -0.2,-1.4 C 11,18.7 11,18.5 11,18.5 11,18.2 12.4,17.2 15,17 v 3 c -2.3,0.3 -4,1.4 -4,2.9 0,1 0.7,1.8 1.8,2.4 0.1,0.1 0.3,0.1 0.4,0.1 0.4,0 0.7,-0.2 0.9,-0.6 0.2,-0.5 0,-1.1 -0.5,-1.3 C 13.2,23.3 13,23.1 13,23 c 0,-0.2 0.7,-0.7 2,-0.9 V 27 c 0,0.6 0.4,1 1,1 0.6,0 1,-0.4 1,-1 v -0.8 c 0.6,0.2 1,0.6 1,0.8 0,0.4 -0.8,1 -2,1 -1.2,0 -2,-0.6 -2,-1 0,-0.6 -0.4,-1 -1,-1 -0.6,0 -1,0.4 -1,1 0,1.7 1.8,3 4,3 2.2,0 4,-1.3 4,-3 0,-1.4 -1.3,-2.6 -3,-2.9 V 22 c 3.1,-0.2 6,-1.4 6,-3.5 0,-1.3 -1.1,-2.2 -2.6,-2.8 l 8.9,-2.8 c 0.3,-0.1 0.6,-0.4 0.7,-0.7 0.1,-0.3 -0.1,-0.7 -0.3,-0.9 z M 21,18.5 c 0,0.3 -1.4,1.3 -4,1.5 v -3 c 2.6,0.2 4,1.2 4,1.5 z"
   id="path2-7" /> </g> </g></g><text
       xml:space="preserve"
       style="font-size:29.2185px;fill:#0d7dff;fill-opacity:1;stroke-width:2.43487"
       x="151.88667"
       y="268.73898"
       id="text4"><tspan
         sodipodi:role="line"
         id="tspan4"
         x="151.88667"
         y="268.73898"
         style="font-style:normal;font-variant:normal;font-weight:300;font-stretch:normal;font-family:Bahnschrift;-inkscape-font-specification:'Bahnschrift Light';stroke-width:2.43487">ReadyCare+</tspan></text><circle
       style="fill:none;fill-opacity:1;stroke:#00b1fc;stroke-width:1.86709;stroke-dasharray:none;stroke-opacity:1"
       id="path13"
       cx="130.75789"
       cy="259.47272"
       r="17.828646" /></g></svg>
